<svg width="20" height="20" viewBox="0 0 20 20" fill="none" xmlns="http://www.w3.org/2000/svg">
<g clip-path="url(#clip0_4_175)">
<path d="M18.8711 6.35156L8.97655 16.2461L5.07537 16.2461L1.5992 19.7234C1.23791 20.0897 0.64217 20.0897 0.276155 19.7234C-0.0900171 19.362 -0.0900171 18.766 0.276155 18.4L3.75233 14.9226L3.75234 10.9812L5.66835 9.05194L7.68398 11.0672C7.80605 11.1893 7.96593 11.2503 8.12578 11.2503C8.28562 11.2503 8.44558 11.1892 8.56757 11.0672C8.81168 10.823 8.81168 10.4273 8.56757 10.1832L6.54686 8.16796L8.1578 6.54609L10.1816 8.56992C10.3037 8.69203 10.4636 8.75304 10.6234 8.75304C10.7833 8.75304 10.9432 8.69199 11.0652 8.56992C11.3093 8.3257 11.3093 7.93007 11.0652 7.68593L9.03905 5.65625L10.65 4.03437L12.682 6.0664C12.8041 6.18851 12.964 6.24953 13.1238 6.24953C13.2837 6.24953 13.4436 6.18847 13.5656 6.0664C13.8097 5.82218 13.8097 5.42656 13.5656 5.18242L11.5308 3.14765L13.4715 1.19375C14.8922 -0.232427 17.1578 -0.40313 18.6238 0.793354C20.5547 2.3871 20.2695 4.99218 18.8711 6.35156Z" fill="#191919"/>
</g>
<defs>
<clipPath id="clip0_4_175">
<rect width="20" height="20" fill="white"/>
</clipPath>
</defs>
</svg>
