<svg width="24" height="24" viewBox="0 0 24 24" fill="none" xmlns="http://www.w3.org/2000/svg">
<path d="M9.5887 7.61629C9.17995 7.10629 8.53495 6.75004 7.79995 6.75004C6.5572 6.75004 5.54995 7.75729 5.54995 8.96629C5.54995 9.92479 6.1522 10.7378 6.9967 11.0618C7.39495 10.6238 7.8937 10.2338 8.4712 9.94129C8.5912 9.09379 9.02245 8.29879 9.5887 7.61629ZM4.49995 8.96629C4.49995 7.14379 5.97745 5.70004 7.79995 5.70004C8.84245 5.70004 9.76083 6.19279 10.3657 6.94766C11.1622 6.36004 12.1365 5.99891 13.2 5.99891C13.1996 5.99891 13.2003 5.99891 13.2 5.99891L11.265 5.53429L10.7587 2.72392C10.7212 2.52551 10.5487 2.40005 10.3687 2.40005C10.2927 2.40005 10.2151 2.42228 10.1454 2.47058L7.79901 4.09883L5.45245 2.47061C5.38495 2.42225 5.3062 2.40002 5.2312 2.40002C5.05053 2.40002 4.87874 2.5255 4.84308 2.72387L4.33533 5.5345L1.52395 6.04241C1.32561 6.07825 1.20006 6.25009 1.20006 6.43091C1.20006 6.50689 1.22227 6.58444 1.2706 6.65407L2.89848 9.00045L1.27045 11.3475C1.22208 11.415 1.19995 11.4938 1.19995 11.5688C1.19995 11.7494 1.32546 11.9212 1.5238 11.9569L4.33443 12.4647L4.84218 15.2753C4.87801 15.4736 5.04981 15.5991 5.2303 15.5991C5.30631 15.5991 5.3839 15.5769 5.45358 15.5286L6.1837 15.0219C6.0652 14.6342 5.99868 14.2239 5.99868 13.7979C5.99868 13.1541 6.14984 12.5391 6.41643 11.9859C5.28745 11.4638 4.49995 10.3275 4.49995 8.96629ZM20.3437 10.8563C20.0859 9.45941 18.8718 8.40004 17.3996 8.40004C16.9402 8.40004 16.5041 8.51254 16.1152 8.70004C15.459 7.79516 14.4041 7.20004 13.1992 7.20004C11.2117 7.20004 9.59883 8.81254 9.59883 10.8C9.59883 10.8188 9.6082 10.8422 9.6082 10.861C8.23495 11.1038 7.1662 12.345 7.1662 13.7663C7.1662 15.4257 8.50683 16.7663 10.1666 16.7663H19.7666C21.4575 16.7663 22.8 15.4575 22.8 13.7663C22.8 12.3263 21.7387 11.1075 20.3437 10.8563ZM20.7 17.9663C20.4092 17.9663 20.1243 18.107 19.9511 18.3672L18.7511 20.1672C18.6487 20.3207 18.5997 20.4941 18.5997 20.6655C18.6 21.2025 19.0087 21.6 19.5 21.6C19.7906 21.6 20.076 21.4594 20.2492 21.1992L21.4492 19.3992C21.5516 19.2457 21.6006 19.0722 21.6006 18.9008C21.6 18.3975 21.1912 17.9663 20.7 17.9663ZM17.1 17.9663C16.8093 17.9663 16.5247 18.107 16.3507 18.3672L15.1507 20.1672C15.0483 20.3207 14.9993 20.4941 14.9993 20.6655C15 21.2025 15.4087 21.6 15.8662 21.6C16.1568 21.6 16.4422 21.4594 16.6155 21.1992L17.8155 19.3992C17.9179 19.2457 17.9668 19.0722 17.9668 18.9008C18 18.3975 17.5912 17.9663 17.1 17.9663ZM13.5 17.9663C13.2092 17.9663 12.9247 18.107 12.7511 18.3672L11.5511 20.1672C11.4487 20.3207 11.3997 20.4941 11.3997 20.6655C11.4 21.2025 11.8087 21.6 12.2662 21.6C12.5568 21.6 12.8422 21.4594 13.0158 21.1992L14.2158 19.3992C14.3182 19.2457 14.3672 19.0722 14.3672 18.9008C14.4 18.3975 13.9912 17.9663 13.5 17.9663ZM9.89995 17.9663C9.6091 17.9663 9.32433 18.107 9.15108 18.3672L7.95108 20.1672C7.84866 20.3207 7.79969 20.4941 7.79969 20.6655C7.79995 21.2025 8.2087 21.6 8.6662 21.6C8.95683 21.6 9.2422 21.4594 9.41545 21.1992L10.6155 19.3992C10.7179 19.2457 10.7668 19.0722 10.7668 18.9008C10.8 18.3975 10.3912 17.9663 9.89995 17.9663Z" fill="#191919"/>
</svg>
