<svg width="82" height="35" viewBox="0 0 82 35" fill="none" xmlns="http://www.w3.org/2000/svg">
<path d="M1.17574e-05 6.64865C1.17574e-05 5.55924 0.245665 4.58196 0.736971 3.71684C1.22828 2.84103 1.89581 2.15747 2.73958 1.66617C3.59402 1.17486 4.53925 0.929208 5.57527 0.929208C6.79286 0.929208 7.85557 1.22292 8.76342 1.81036C9.67127 2.39779 10.3335 3.23087 10.75 4.30961H9.00373C8.694 3.63673 8.24541 3.11873 7.65798 2.75559C7.08123 2.39245 6.38699 2.21088 5.57527 2.21088C4.79559 2.21088 4.09601 2.39245 3.47654 2.75559C2.85706 3.11873 2.3711 3.63673 2.01864 4.30961C1.66618 4.9718 1.48995 5.75149 1.48995 6.64865C1.48995 7.53514 1.66618 8.31482 2.01864 8.9877C2.3711 9.64989 2.85706 10.1626 3.47654 10.5257C4.09601 10.8888 4.79559 11.0704 5.57527 11.0704C6.38699 11.0704 7.08123 10.8942 7.65798 10.5417C8.24541 10.1786 8.694 9.66058 9.00373 8.9877H10.75C10.3335 10.0558 9.67127 10.8835 8.76342 11.4709C7.85557 12.0477 6.79286 12.3361 5.57527 12.3361C4.53925 12.3361 3.59402 12.0957 2.73958 11.6151C1.89581 11.1238 1.22828 10.4456 0.736971 9.58047C0.245665 8.71534 1.17574e-05 7.73807 1.17574e-05 6.64865ZM17.2779 3.3003C17.9401 3.3003 18.5382 3.44448 19.0722 3.73286C19.6062 4.01055 20.0228 4.43244 20.3218 4.99851C20.6316 5.56458 20.7864 6.25347 20.7864 7.0652V12.2399H19.3446V7.27347C19.3446 6.39766 19.1256 5.73012 18.6877 5.27086C18.2498 4.80092 17.6517 4.56594 16.8934 4.56594C16.1244 4.56594 15.5102 4.80626 15.051 5.28688C14.6024 5.76751 14.3781 6.46708 14.3781 7.38561V12.2399H12.9202V0.384499H14.3781V4.71013C14.6665 4.26155 15.0617 3.91443 15.5636 3.66877C16.0763 3.42312 16.6477 3.3003 17.2779 3.3003ZM22.6232 7.81818C22.6232 6.92101 22.8048 6.13599 23.1679 5.46311C23.5311 4.77955 24.0277 4.25087 24.6579 3.87705C25.2987 3.50323 26.009 3.31632 26.7886 3.31632C27.5576 3.31632 28.2252 3.48186 28.7912 3.81296C29.3573 4.14406 29.7792 4.5606 30.0569 5.06259V3.4605H31.5308V12.2399H30.0569V10.6058C29.7685 11.1185 29.336 11.5457 28.7592 11.8875C28.1931 12.2186 27.5309 12.3841 26.7726 12.3841C25.9929 12.3841 25.288 12.1919 24.6579 11.8074C24.0277 11.4229 23.5311 10.8835 23.1679 10.1893C22.8048 9.49503 22.6232 8.70466 22.6232 7.81818ZM30.0569 7.8342C30.0569 7.172 29.9234 6.59525 29.6564 6.10395C29.3894 5.61264 29.0262 5.23882 28.567 4.98249C28.1184 4.71547 27.6217 4.58196 27.077 4.58196C26.5323 4.58196 26.0357 4.71013 25.5871 4.96646C25.1385 5.2228 24.7807 5.59662 24.5137 6.08792C24.2467 6.57923 24.1132 7.15598 24.1132 7.81818C24.1132 8.49105 24.2467 9.07848 24.5137 9.58047C24.7807 10.0718 25.1385 10.4509 25.5871 10.718C26.0357 10.9743 26.5323 11.1025 27.077 11.1025C27.6217 11.1025 28.1184 10.9743 28.567 10.718C29.0262 10.4509 29.3894 10.0718 29.6564 9.58047C29.9234 9.07848 30.0569 8.49639 30.0569 7.8342ZM38.2721 3.3003C39.3401 3.3003 40.2053 3.62605 40.8675 4.27757C41.5297 4.9184 41.8608 5.84761 41.8608 7.0652V12.2399H40.4189V7.27347C40.4189 6.39766 40.1999 5.73012 39.762 5.27086C39.3241 4.80092 38.726 4.56594 37.9677 4.56594C37.1987 4.56594 36.5846 4.80626 36.1253 5.28688C35.6767 5.76751 35.4524 6.46708 35.4524 7.38561V12.2399H33.9945V3.4605H35.4524V4.71013C35.7408 4.26155 36.1306 3.91443 36.6219 3.66877C37.1239 3.42312 37.674 3.3003 38.2721 3.3003ZM43.6975 7.8342C43.6975 6.92635 43.8791 6.13599 44.2422 5.46311C44.6054 4.77955 45.1074 4.25087 45.7482 3.87705C46.3997 3.50323 47.142 3.31632 47.9751 3.31632C49.0538 3.31632 49.9403 3.57799 50.6346 4.10134C51.3395 4.62469 51.8041 5.35096 52.0284 6.28017H50.4583C50.3088 5.74615 50.0151 5.32426 49.5772 5.01453C49.15 4.70479 48.6159 4.54992 47.9751 4.54992C47.142 4.54992 46.4691 4.8383 45.9565 5.41505C45.4438 5.98112 45.1875 6.7875 45.1875 7.8342C45.1875 8.89157 45.4438 9.70864 45.9565 10.2854C46.4691 10.8621 47.142 11.1505 47.9751 11.1505C48.6159 11.1505 49.15 11.001 49.5772 10.7019C50.0044 10.4029 50.2981 9.97565 50.4583 9.42026H52.0284C51.7934 10.3174 51.3235 11.0384 50.6185 11.5831C49.9136 12.1171 49.0325 12.3841 47.9751 12.3841C47.142 12.3841 46.3997 12.1972 45.7482 11.8234C45.1074 11.4496 44.6054 10.9209 44.2422 10.2373C43.8791 9.55377 43.6975 8.75273 43.6975 7.8342ZM61.9841 7.51378C61.9841 7.79148 61.9681 8.08519 61.936 8.39493H54.9189C54.9723 9.26005 55.266 9.93827 55.8 10.4296C56.3447 10.9102 57.0016 11.1505 57.7706 11.1505C58.4007 11.1505 58.9241 11.0063 59.3406 10.718C59.7679 10.4189 60.0669 10.0237 60.2378 9.53241H61.8079C61.5729 10.3762 61.1029 11.0651 60.398 11.5991C59.6931 12.1224 58.8173 12.3841 57.7706 12.3841C56.9375 12.3841 56.1899 12.1972 55.5277 11.8234C54.8762 11.4496 54.3635 10.9209 53.9897 10.2373C53.6159 9.54309 53.4289 8.74205 53.4289 7.8342C53.4289 6.92635 53.6105 6.13065 53.9737 5.44709C54.3368 4.76353 54.8441 4.24019 55.4956 3.87705C56.1578 3.50323 56.9161 3.31632 57.7706 3.31632C58.6037 3.31632 59.3406 3.49789 59.9815 3.86103C60.6223 4.22416 61.1136 4.72615 61.4554 5.36699C61.8079 5.99714 61.9841 6.71274 61.9841 7.51378ZM60.4781 7.20938C60.4781 6.65399 60.3553 6.17871 60.1096 5.78353C59.864 5.37767 59.5275 5.07327 59.1003 4.87034C58.6838 4.65673 58.2192 4.54992 57.7065 4.54992C56.9696 4.54992 56.3394 4.78489 55.8161 5.25484C55.3034 5.72478 55.0097 6.3763 54.9349 7.20938H60.4781ZM72.0086 12.3841C71.1862 12.3841 70.4386 12.1972 69.7657 11.8234C69.1035 11.4496 68.5802 10.9209 68.1957 10.2373C67.8218 9.54309 67.6349 8.74205 67.6349 7.8342C67.6349 6.93703 67.8272 6.14667 68.2117 5.46311C68.6069 4.76887 69.1409 4.24019 69.8138 3.87705C70.4866 3.50323 71.2396 3.31632 72.0727 3.31632C72.9058 3.31632 73.6588 3.50323 74.3317 3.87705C75.0045 4.24019 75.5332 4.76353 75.9177 5.44709C76.3129 6.13065 76.5105 6.92635 76.5105 7.8342C76.5105 8.74205 76.3076 9.54309 75.9017 10.2373C75.5065 10.9209 74.9671 11.4496 74.2836 11.8234C73.6 12.1972 72.8417 12.3841 72.0086 12.3841ZM72.0086 11.1025C72.532 11.1025 73.0233 10.9796 73.4825 10.734C73.9418 10.4883 74.3103 10.1198 74.588 9.62853C74.8764 9.13723 75.0206 8.53912 75.0206 7.8342C75.0206 7.12928 74.8817 6.53117 74.604 6.03986C74.3263 5.54856 73.9632 5.18542 73.5146 4.95044C73.066 4.70479 72.58 4.58196 72.0567 4.58196C71.5227 4.58196 71.0314 4.70479 70.5828 4.95044C70.1449 5.18542 69.7924 5.54856 69.5254 6.03986C69.2584 6.53117 69.1249 7.12928 69.1249 7.8342C69.1249 8.5498 69.253 9.15325 69.5094 9.64455C69.7764 10.1359 70.1288 10.5043 70.5668 10.75C71.0047 10.985 71.4853 11.1025 72.0086 11.1025ZM82 4.66207H80.1576V12.2399H78.6997V4.66207H77.5622V3.4605H78.6997V2.83569C78.6997 1.85308 78.9507 1.13748 79.4527 0.688896C79.9654 0.229631 80.7824 -1.90983e-06 81.9039 -1.90983e-06V1.21758C81.2631 1.21758 80.8091 1.34575 80.5421 1.60208C80.2858 1.84774 80.1576 2.25894 80.1576 2.83569V3.4605H82V4.66207Z" fill="#030303"/>
</svg>
