<svg width="40" height="40" viewBox="0 0 40 40" fill="none" xmlns="http://www.w3.org/2000/svg">
<g clip-path="url(#clip0_4_216)">
<path d="M20 3.33333C11.1167 10.9167 6.66669 17.4667 6.66669 23C6.66669 31.3 13 36.6667 20 36.6667C27 36.6667 33.3334 31.3 33.3334 23C33.3334 17.4667 28.8834 10.9167 20 3.33333ZM13.05 23.3333C13.6667 23.3333 14.1667 23.7667 14.2834 24.3667C14.9667 28.0667 18.0834 29.3333 20.35 29.15C21.0667 29.1167 21.6667 29.6833 21.6667 30.4C21.6667 31.0667 21.1334 31.6167 20.4667 31.65C16.9167 31.8667 12.7667 29.8333 11.8167 24.7833C11.7877 24.6046 11.7979 24.4218 11.8466 24.2474C11.8952 24.0731 11.9811 23.9113 12.0984 23.7735C12.2157 23.6356 12.3615 23.5248 12.5259 23.4488C12.6902 23.3728 12.869 23.3334 13.05 23.3333Z" fill="#5AC8FA"/>
</g>
<defs>
<clipPath id="clip0_4_216">
<rect width="40" height="40" fill="white"/>
</clipPath>
</defs>
</svg>
