<svg width="40" height="40" viewBox="0 0 40 40" fill="none" xmlns="http://www.w3.org/2000/svg">
<g clip-path="url(#clip0_4_219)">
<path d="M25 21.6667V8.33333C25 5.56667 22.7667 3.33333 20 3.33333C17.2334 3.33333 15 5.56667 15 8.33333V21.6667C12.9834 23.1833 11.6667 25.6167 11.6667 28.3333C11.6667 32.9333 15.4 36.6667 20 36.6667C24.6 36.6667 28.3334 32.9333 28.3334 28.3333C28.3334 25.6167 27.0167 23.1833 25 21.6667ZM18.3334 8.33333C18.3334 7.41667 19.0834 6.66667 20 6.66667C20.9167 6.66667 21.6667 7.41667 21.6667 8.33333H20V10H21.6667V13.3333H20V15H21.6667V18.3333H18.3334V8.33333Z" fill="#FF3B30"/>
</g>
<defs>
<clipPath id="clip0_4_219">
<rect width="40" height="40" fill="white"/>
</clipPath>
</defs>
</svg>
