<svg width="20" height="20" viewBox="0 0 20 20" fill="none" xmlns="http://www.w3.org/2000/svg">
<g clip-path="url(#clip0_4_183)">
<path d="M11.1414 0.862889C10.8313 -0.261329 9.21016 -0.313673 8.85859 0.862889C7.03164 7.02539 3.125 8.7 3.125 13.0434C3.125 16.8887 6.2 20 10 20C13.8 20 16.875 16.8887 16.875 13.0434C16.875 8.67812 12.977 7.05351 11.1414 0.862889ZM10 17.5C7.58789 17.5 5.625 15.5371 5.625 13.125C5.625 12.7797 5.90469 12.5 6.25 12.5C6.59531 12.5 6.875 12.7797 6.875 13.125C6.875 14.848 8.27695 16.25 10 16.25C10.3453 16.25 10.625 16.5297 10.625 16.875C10.625 17.2203 10.3453 17.5 10 17.5Z" fill="#191919"/>
</g>
<defs>
<clipPath id="clip0_4_183">
<rect width="20" height="20" fill="white"/>
</clipPath>
</defs>
</svg>
