<svg width="14" height="14" viewBox="0 0 14 14" fill="none" xmlns="http://www.w3.org/2000/svg">
<path d="M5.59345 4.44281C5.35501 4.14531 4.97876 3.9375 4.55001 3.9375C3.82507 3.9375 3.23751 4.52506 3.23751 5.23031C3.23751 5.78944 3.58882 6.26369 4.08145 6.45269C4.31376 6.19719 4.6047 5.96969 4.94157 5.79906C5.01157 5.30469 5.26314 4.84094 5.59345 4.44281ZM2.62501 5.23031C2.62501 4.16719 3.48689 3.325 4.55001 3.325C5.15814 3.325 5.69386 3.61244 6.0467 4.05278C6.51132 3.71 7.07964 3.49934 7.70001 3.49934C7.6998 3.49934 7.70023 3.49934 7.70001 3.49934L6.57126 3.22831L6.27595 1.58893C6.25407 1.47319 6.15345 1.40001 6.04845 1.40001C6.00411 1.40001 5.95885 1.41297 5.91818 1.44115L4.54947 2.39097L3.18064 1.44117C3.14126 1.41296 3.09532 1.39999 3.05157 1.39999C2.94618 1.39999 2.84597 1.47319 2.82517 1.58891L2.52898 3.22844L0.889012 3.52472C0.773315 3.54562 0.700078 3.64586 0.700078 3.75134C0.700078 3.79566 0.71303 3.8409 0.741225 3.88152L1.69082 5.25024L0.741137 6.61938C0.712918 6.65875 0.700012 6.70469 0.700012 6.74844C0.700012 6.85381 0.773228 6.95402 0.888925 6.97484L2.52846 7.27103L2.82464 8.91056C2.84555 9.02626 2.94577 9.09948 3.05105 9.09948C3.09539 9.09948 3.14065 9.08651 3.18129 9.05831L3.6072 8.76278C3.53807 8.53659 3.49927 8.29728 3.49927 8.04878C3.49927 7.67318 3.58745 7.31443 3.74296 6.99178C3.08439 6.68719 2.62501 6.02438 2.62501 5.23031ZM11.8672 6.33281C11.7168 5.51797 11.0086 4.9 10.1498 4.9C9.88182 4.9 9.62742 4.96563 9.40057 5.075C9.01776 4.54716 8.40242 4.2 7.69957 4.2C6.5402 4.2 5.59936 5.14063 5.59936 6.3C5.59936 6.31094 5.60482 6.32461 5.60482 6.33555C4.80376 6.47719 4.18032 7.20125 4.18032 8.03031C4.18032 8.99828 4.96236 9.78031 5.93054 9.78031H11.5305C12.5169 9.78031 13.3 9.01688 13.3 8.03031C13.3 7.19031 12.6809 6.47938 11.8672 6.33281ZM12.075 10.4803C11.9054 10.4803 11.7392 10.5624 11.6382 10.7142L10.9382 11.7642C10.8784 11.8537 10.8499 11.9549 10.8499 12.0549C10.85 12.3681 11.0884 12.6 11.375 12.6C11.5445 12.6 11.711 12.518 11.8121 12.3662L12.5121 11.3162C12.5718 11.2266 12.6004 11.1254 12.6004 11.0254C12.6 10.7319 12.3616 10.4803 12.075 10.4803ZM9.97501 10.4803C9.80546 10.4803 9.63945 10.5624 9.53795 10.7142L8.83795 11.7642C8.77821 11.8537 8.74964 11.9549 8.74964 12.0549C8.75001 12.3681 8.98845 12.6 9.25532 12.6C9.42486 12.6 9.59132 12.518 9.69239 12.3662L10.3924 11.3162C10.4521 11.2266 10.4807 11.1254 10.4807 11.0254C10.5 10.7319 10.2616 10.4803 9.97501 10.4803ZM7.87501 10.4803C7.70542 10.4803 7.53945 10.5624 7.43817 10.7142L6.73817 11.7642C6.67843 11.8537 6.64986 11.9549 6.64986 12.0549C6.65001 12.3681 6.88845 12.6 7.15532 12.6C7.32486 12.6 7.49132 12.518 7.59261 12.3662L8.29261 11.3162C8.35235 11.2266 8.38092 11.1254 8.38092 11.0254C8.40001 10.7319 8.16157 10.4803 7.87501 10.4803ZM5.77501 10.4803C5.60535 10.4803 5.43923 10.5624 5.33817 10.7142L4.63817 11.7642C4.57843 11.8537 4.54986 11.9549 4.54986 12.0549C4.55001 12.3681 4.78845 12.6 5.05532 12.6C5.22486 12.6 5.39132 12.518 5.49239 12.3662L6.19239 11.3162C6.25213 11.2266 6.2807 11.1254 6.2807 11.0254C6.30001 10.7319 6.06157 10.4803 5.77501 10.4803Z" fill="white"/>
</svg>
