<svg width="80" height="17" viewBox="0 0 80 17" fill="none" xmlns="http://www.w3.org/2000/svg">
<mask id="mask0_4_158" style="mask-type:luminance" maskUnits="userSpaceOnUse" x="-1" y="-6" width="110" height="23">
<path d="M108.949 -5.71658H-0.675848V16.4095H108.949V-5.71658Z" fill="white"/>
</mask>
<g mask="url(#mask0_4_158)">
<path d="M10.1056 1.59307V12.8894H7.35391V8.23894H3.07352V12.8894H0.321837V1.59307H3.07352V6.01829H7.35391V1.59307H10.1056ZM20.9586 3.91028V12.8894H18.2069V11.6665C17.928 12.0634 17.5471 12.3852 17.0644 12.632C16.5923 12.868 16.0667 12.986 15.4874 12.986C14.8008 12.986 14.1947 12.8358 13.669 12.5354C13.1434 12.2243 12.7357 11.7791 12.4461 11.1998C12.1564 10.6205 12.0116 9.9393 12.0116 9.15617V3.91028H14.7472V8.78606C14.7472 9.38682 14.9027 9.85348 15.2138 10.186C15.5249 10.5186 15.9433 10.6849 16.469 10.6849C17.0054 10.6849 17.4291 10.5186 17.7402 10.186C18.0513 9.85348 18.2069 9.38682 18.2069 8.78606V3.91028H20.9586ZM34.3924 3.81373C35.5081 3.81373 36.3931 4.15165 37.0475 4.8275C37.7126 5.50335 38.0452 6.44204 38.0452 7.64355V12.8894H35.3096V8.01366C35.3096 7.43436 35.154 6.98915 34.8429 6.67805C34.5425 6.35621 34.1242 6.1953 33.5878 6.1953C33.0514 6.1953 32.6276 6.35621 32.3165 6.67805C32.0162 6.98915 31.866 7.43436 31.866 8.01366V12.8894H29.1304V8.01366C29.1304 7.43436 28.9748 6.98915 28.6637 6.67805C28.3633 6.35621 27.945 6.1953 27.4086 6.1953C26.8722 6.1953 26.4484 6.35621 26.1373 6.67805C25.8369 6.98915 25.6868 7.43436 25.6868 8.01366V12.8894H22.9351V3.91028H25.6868V5.03669C25.9657 4.66122 26.3304 4.36621 26.781 4.15165C27.2316 3.92637 27.7411 3.81373 28.3097 3.81373C28.9855 3.81373 29.5863 3.95855 30.112 4.2482C30.6484 4.53785 31.0667 4.95087 31.3671 5.48726C31.6782 4.99378 32.102 4.59149 32.6384 4.28039C33.1748 3.96928 33.7594 3.81373 34.3924 3.81373ZM41.3535 2.97696C40.8708 2.97696 40.4738 2.8375 40.1627 2.55857C39.8624 2.26892 39.7122 1.91491 39.7122 1.49652C39.7122 1.06741 39.8624 0.713392 40.1627 0.434469C40.4738 0.144819 40.8708 -6.71398e-06 41.3535 -6.71398e-06C41.8255 -6.71398e-06 42.2118 0.144819 42.5121 0.434469C42.8232 0.713392 42.9788 1.06741 42.9788 1.49652C42.9788 1.91491 42.8232 2.26892 42.5121 2.55857C42.2118 2.8375 41.8255 2.97696 41.3535 2.97696ZM42.7213 3.91028V12.8894H39.9696V3.91028H42.7213ZM44.1683 8.38377C44.1683 7.46118 44.34 6.65123 44.6833 5.95392C45.0373 5.25661 45.5147 4.72022 46.1154 4.34475C46.7162 3.96928 47.3867 3.78154 48.1269 3.78154C48.7169 3.78154 49.2533 3.90491 49.736 4.15165C50.2295 4.39839 50.6157 4.73095 50.8946 5.14934V0.981588H53.6463V12.8894H50.8946V11.6021C50.6372 12.0312 50.2671 12.3745 49.7843 12.632C49.3123 12.8894 48.7598 13.0182 48.1269 13.0182C47.3867 13.0182 46.7162 12.8304 46.1154 12.455C45.5147 12.0688 45.0373 11.527 44.6833 10.8297C44.34 10.1217 44.1683 9.30636 44.1683 8.38377ZM50.8946 8.39986C50.8946 7.71328 50.7015 7.17153 50.3153 6.7746C49.9399 6.37767 49.4786 6.17921 48.9315 6.17921C48.3843 6.17921 47.9177 6.37767 47.5315 6.7746C47.156 7.1608 46.9683 7.69719 46.9683 8.38377C46.9683 9.07035 47.156 9.61746 47.5315 10.0251C47.9177 10.422 48.3843 10.6205 48.9315 10.6205C49.4786 10.6205 49.9399 10.422 50.3153 10.0251C50.7015 9.62819 50.8946 9.08644 50.8946 8.39986ZM57.0209 2.97696C56.5382 2.97696 56.1413 2.8375 55.8301 2.55857C55.5298 2.26892 55.3796 1.91491 55.3796 1.49652C55.3796 1.06741 55.5298 0.713392 55.8301 0.434469C56.1413 0.144819 56.5382 -6.71398e-06 57.0209 -6.71398e-06C57.493 -6.71398e-06 57.8792 0.144819 58.1795 0.434469C58.4906 0.713392 58.6462 1.06741 58.6462 1.49652C58.6462 1.91491 58.4906 2.26892 58.1795 2.55857C57.8792 2.8375 57.493 2.97696 57.0209 2.97696ZM58.3887 3.91028V12.8894H55.637V3.91028H58.3887ZM65.3874 10.5561V12.8894H63.9874C62.9897 12.8894 62.2119 12.6481 61.6541 12.1653C61.0962 11.6718 60.8173 10.8726 60.8173 9.76765V6.1953H59.7231V3.91028H60.8173V1.72181H63.569V3.91028H65.3713V6.1953H63.569V9.79984C63.569 10.068 63.6334 10.2611 63.7621 10.3791C63.8908 10.4971 64.1054 10.5561 64.4058 10.5561H65.3874ZM76.0924 3.91028L70.4603 17.1537H67.4994L69.5591 12.5837L65.9063 3.91028H68.9798L71.0557 9.52628L73.1154 3.91028H76.0924ZM78.3747 13.0182C77.892 13.0182 77.4951 12.8787 77.184 12.5998C76.8836 12.3101 76.7334 11.9561 76.7334 11.5377C76.7334 11.1086 76.8836 10.7492 77.184 10.4596C77.4951 10.1699 77.892 10.0251 78.3747 10.0251C78.8468 10.0251 79.233 10.1699 79.5333 10.4596C79.8444 10.7492 80 11.1086 80 11.5377C80 11.9561 79.8444 12.3101 79.5333 12.5998C79.233 12.8787 78.8468 13.0182 78.3747 13.0182ZM78.3747 6.46886C77.892 6.46886 77.4951 6.32939 77.184 6.05047C76.8836 5.76082 76.7334 5.4068 76.7334 4.98842C76.7334 4.55931 76.8836 4.19993 77.184 3.91028C77.4951 3.62063 77.892 3.4758 78.3747 3.4758C78.8468 3.4758 79.233 3.62063 79.5333 3.91028C79.8444 4.19993 80 4.55931 80 4.98842C80 5.4068 79.8444 5.76082 79.5333 6.05047C79.233 6.32939 78.8468 6.46886 78.3747 6.46886Z" fill="#030303"/>
</g>
</svg>
