<svg width="20" height="20" viewBox="0 0 20 20" fill="none" xmlns="http://www.w3.org/2000/svg">
<g clip-path="url(#clip0_4_228)">
<path d="M0 16.25C0 15.5586 0.559766 15 1.25 15H3.38516C3.86719 13.8945 4.96875 13.125 6.25 13.125C7.53125 13.125 8.59766 13.8945 9.11328 15H18.75C19.4414 15 20 15.5586 20 16.25C20 16.9414 19.4414 17.5 18.75 17.5H9.11328C8.59766 18.6055 7.53125 19.375 6.25 19.375C4.96875 19.375 3.86719 18.6055 3.38516 17.5H1.25C0.559766 17.5 0 16.9414 0 16.25ZM7.5 16.25C7.5 15.5586 6.94141 15 6.25 15C5.55859 15 5 15.5586 5 16.25C5 16.9414 5.55859 17.5 6.25 17.5C6.94141 17.5 7.5 16.9414 7.5 16.25ZM13.75 6.875C15.0312 6.875 16.0977 7.64453 16.6133 8.75H18.75C19.4414 8.75 20 9.30859 20 10C20 10.6914 19.4414 11.25 18.75 11.25H16.6133C16.0977 12.3555 15.0312 13.125 13.75 13.125C12.4688 13.125 11.3672 12.3555 10.8867 11.25H1.25C0.559766 11.25 0 10.6914 0 10C0 9.30859 0.559766 8.75 1.25 8.75H10.8867C11.3672 7.64453 12.4688 6.875 13.75 6.875ZM15 10C15 9.30859 14.4414 8.75 13.75 8.75C13.0586 8.75 12.5 9.30859 12.5 10C12.5 10.6914 13.0586 11.25 13.75 11.25C14.4414 11.25 15 10.6914 15 10ZM18.75 2.5C19.4414 2.5 20 3.05977 20 3.75C20 4.44141 19.4414 5 18.75 5H10.3633C9.84766 6.10547 8.78125 6.875 7.5 6.875C6.21875 6.875 5.11719 6.10547 4.63672 5H1.25C0.559766 5 0 4.44141 0 3.75C0 3.05977 0.559766 2.5 1.25 2.5H4.63672C5.11719 1.39648 6.21875 0.625 7.5 0.625C8.78125 0.625 9.84766 1.39648 10.3633 2.5H18.75ZM6.25 3.75C6.25 4.44141 6.80859 5 7.5 5C8.19141 5 8.75 4.44141 8.75 3.75C8.75 3.05977 8.19141 2.5 7.5 2.5C6.80859 2.5 6.25 3.05977 6.25 3.75Z" fill="#191919"/>
</g>
<defs>
<clipPath id="clip0_4_228">
<rect width="20" height="20" fill="white"/>
</clipPath>
</defs>
</svg>
