<svg width="20" height="20" viewBox="0 0 20 20" fill="none" xmlns="http://www.w3.org/2000/svg">
<g clip-path="url(#clip0_4_191)">
<path d="M10 6.21484C7.92891 6.21484 6.28516 7.89374 6.28516 9.92968C6.28516 11.9656 7.89453 13.7148 10 13.7148C12.1055 13.7148 13.7148 12.0359 13.7148 9.99999C13.7148 7.96406 12.0703 6.21484 10 6.21484ZM19.8945 13.5547L17.4258 9.96484L19.8926 6.40976C20.1399 6.05331 19.9357 5.56054 19.5088 5.4832L15.2509 4.71367L14.4814 0.455852C14.4043 0.0288993 13.9115 -0.175398 13.5548 0.0721024L10 2.57382L6.41016 0.106868C6.05371 -0.140476 5.56094 0.0636259 5.4836 0.490618L4.75 4.74999L0.490628 5.51952C0.0637923 5.59374 -0.140465 6.08984 0.106878 6.41015L2.57383 9.99999L0.107035 13.5551C-0.140309 13.9115 0.0638704 14.4043 0.490784 14.4816L4.7486 15.2512L5.51813 19.509C5.59528 19.9359 6.08805 20.1402 6.44469 19.8927L10 17.4258L13.5551 19.8926C13.9116 20.14 14.4047 19.9358 14.4816 19.5089L15.2512 15.2511L19.509 14.4816C19.9375 14.4062 20.1406 13.9101 19.8945 13.5547ZM10 14.9648C7.23868 14.9648 5.03516 12.7262 5.03516 9.99999C5.03516 7.23866 7.27383 5.03515 10 5.03515C12.7262 5.03515 14.9648 7.27343 14.9648 9.99999C14.9648 12.7617 12.7617 14.9648 10 14.9648Z" fill="#191919"/>
</g>
<defs>
<clipPath id="clip0_4_191">
<rect width="20" height="20" fill="white"/>
</clipPath>
</defs>
</svg>
