<svg width="20" height="20" viewBox="0 0 20 20" fill="none" xmlns="http://www.w3.org/2000/svg">
<g clip-path="url(#clip0_4_187)">
<path d="M1.25 7.5H13.75C15.818 7.5 17.5 5.81797 17.5 3.75C17.5 1.68203 15.818 0 13.75 0H12.5C11.809 0 11.25 0.558984 11.25 1.25C11.25 1.94102 11.809 2.5 12.5 2.5H13.75C14.4398 2.5 15 3.06016 15 3.75C15 4.43984 14.4398 5 13.75 5H1.25C0.558984 5 0 5.55859 0 6.25C0 6.94141 0.558984 7.5 1.25 7.5ZM6.25 12.5H1.25C0.558984 12.5 0 13.059 0 13.75C0 14.441 0.558984 15 1.25 15H6.25C6.93984 15 7.5 15.5602 7.5 16.25C7.5 16.9398 6.93984 17.5 6.25 17.5H5C4.30898 17.5 3.75 18.059 3.75 18.75C3.75 19.441 4.30898 20 5 20H6.25C8.31797 20 10 18.318 10 16.25C10 14.182 8.31641 12.5 6.25 12.5ZM16.25 8.75H1.25C0.558984 8.75 0 9.30859 0 10C0 10.6914 0.558984 11.25 1.25 11.25H16.25C16.9398 11.25 17.5 11.8102 17.5 12.5C17.5 13.1898 16.9398 13.75 16.25 13.75H15C14.309 13.75 13.75 14.309 13.75 15C13.75 15.691 14.309 16.25 15 16.25H16.25C18.318 16.25 20 14.568 20 12.5C20 10.432 18.3164 8.75 16.25 8.75Z" fill="#191919"/>
</g>
<defs>
<clipPath id="clip0_4_187">
<rect width="20" height="20" fill="white"/>
</clipPath>
</defs>
</svg>
